<svg xmlns="http://www.w3.org/2000/svg" xmlns:xlink="http://www.w3.org/1999/xlink" width="347.86"
    height="269.145" viewBox="0 0 347.86 269.145">
    <defs>
        <radialGradient id="radial-gradient" cx="0.5" cy="0.5" r="0.527"
            gradientTransform="translate(0.048) scale(0.904 1)" gradientUnits="objectBoundingBox">
            <stop offset="0" stop-color="#0025ae" />
            <stop offset="1" stop-color="#008cca" />
        </radialGradient>
        <linearGradient id="linear-gradient" y1="0.5" x2="1" y2="0.5"
            gradientUnits="objectBoundingBox">
            <stop offset="0" stop-color="#23786e" />
            <stop offset="0.183" stop-color="#1e675f" />
            <stop offset="0.542" stop-color="#123d38" />
            <stop offset="1" />
        </linearGradient>
        <linearGradient id="linear-gradient-2" y1="0.5" x2="1" y2="0.5"
            gradientUnits="objectBoundingBox">
            <stop offset="0" />
            <stop offset="0.458" stop-color="#123d38" />
            <stop offset="0.817" stop-color="#1e675f" />
            <stop offset="1" stop-color="#23786e" />
        </linearGradient>
        <radialGradient id="radial-gradient-2" cx="0.5" cy="0.5" r="0.5"
            gradientTransform="matrix(-0.06, -0.998, 0.998, -0.06, 161.938, 11.118)"
            gradientUnits="objectBoundingBox">
            <stop offset="0" stop-color="#00b359" />
            <stop offset="0.127" stop-color="#009148" />
            <stop offset="0.342" stop-color="#005d2e" />
            <stop offset="0.544" stop-color="#00351a" />
            <stop offset="0.727" stop-color="#00170b" />
            <stop offset="0.885" stop-color="#000603" />
            <stop offset="1" />
        </radialGradient>
        <radialGradient id="radial-gradient-3" cx="0.5" cy="0.5" r="0.5"
            gradientTransform="matrix(-0.06, -0.998, 0.998, -0.06, 160.492, 15.661)"
            xlink:href="#radial-gradient-2" />
        <radialGradient id="radial-gradient-4" cx="0.5" cy="0.5" r="0.5"
            gradientTransform="matrix(-0.06, -0.998, 0.998, -0.06, 161.345, 2.615)"
            xlink:href="#radial-gradient-2" />
        <radialGradient id="radial-gradient-5" cx="0.5" cy="0.5" r="0.5"
            gradientTransform="matrix(-0.06, -0.998, 0.998, -0.06, 59.422, 6.412)"
            xlink:href="#radial-gradient-2" />
        <radialGradient id="radial-gradient-6" cx="0.5" cy="0.5" r="0.5"
            gradientTransform="matrix(-0.06, -0.998, 0.998, -0.06, 37.671, -1.262)"
            xlink:href="#radial-gradient-2" />
        <radialGradient id="radial-gradient-7" cx="0.5" cy="0.5" r="0.5"
            gradientTransform="matrix(-0.06, -0.998, 0.998, -0.06, 67.472, -1.541)"
            xlink:href="#radial-gradient-2" />
        <radialGradient id="radial-gradient-8" cx="0.5" cy="0.5" r="0.5"
            gradientTransform="matrix(-0.06, -0.998, 0.998, -0.06, 118.124, -3.48)"
            xlink:href="#radial-gradient-2" />
        <radialGradient id="radial-gradient-9" cx="0.5" cy="0.5" r="0.5"
            gradientTransform="matrix(-0.06, -0.998, 0.998, -0.06, 255.105, -12.527)"
            xlink:href="#radial-gradient-2" />
        <radialGradient id="radial-gradient-10" cx="0.5" cy="0.5" r="0.5"
            gradientTransform="matrix(-0.06, -0.998, 0.998, -0.06, 321.733, -14.798)"
            xlink:href="#radial-gradient-2" />
        <radialGradient id="radial-gradient-11" cx="0.5" cy="0.5" r="0.5"
            gradientTransform="matrix(-0.06, -0.998, 0.998, -0.06, 118.483, -8.385)"
            xlink:href="#radial-gradient-2" />
        <radialGradient id="radial-gradient-12" cx="0.5" cy="0.5" r="0.5"
            gradientTransform="matrix(-0.06, -0.998, 0.998, -0.06, 140.815, -9.147)"
            xlink:href="#radial-gradient-2" />
        <radialGradient id="radial-gradient-13" cx="0.5" cy="0.5" r="0.5"
            gradientTransform="matrix(-0.06, -0.998, 0.998, -0.06, 158.931, 66.62)"
            xlink:href="#radial-gradient-2" />
        <radialGradient id="radial-gradient-14" cx="0.5" cy="0.5" r="0.5"
            gradientTransform="matrix(-0.06, -0.998, 0.998, -0.06, 236.674, 94.711)"
            xlink:href="#radial-gradient-2" />
        <radialGradient id="radial-gradient-15" cx="0.5" cy="0.5" r="0.5"
            gradientTransform="matrix(-0.06, -0.998, 0.998, -0.06, 216.998, 94.42)"
            xlink:href="#radial-gradient-2" />
        <radialGradient id="radial-gradient-16" cx="0.5" cy="0.5" r="0.5"
            gradientTransform="matrix(-0.06, -0.998, 0.998, -0.06, 262.526, 85.78)"
            xlink:href="#radial-gradient-2" />
        <radialGradient id="radial-gradient-17" cx="0.5" cy="0.5" r="0.5"
            gradientTransform="matrix(-0.06, -0.998, 0.998, -0.06, 391.862, 123.476)"
            xlink:href="#radial-gradient-2" />
        <radialGradient id="radial-gradient-18" cx="0.5" cy="0.5" r="0.5"
            gradientTransform="matrix(-0.06, -0.998, 0.998, -0.06, 372.172, 123.178)"
            xlink:href="#radial-gradient-2" />
        <radialGradient id="radial-gradient-19" cx="0.5" cy="0.5" r="0.5"
            gradientTransform="translate(171.374 -26.518) rotate(-93.417)"
            xlink:href="#radial-gradient-2" />
        <radialGradient id="radial-gradient-20" cx="0.5" cy="0.5" r="0.5"
            gradientTransform="matrix(-0.06, -0.998, 0.999, -0.06, 169.931, -21.931)"
            xlink:href="#radial-gradient-2" />
        <radialGradient id="radial-gradient-21" cx="0.5" cy="0.5" r="0.5"
            gradientTransform="matrix(-0.06, -0.998, 0.998, -0.06, 170.783, -35.02)"
            xlink:href="#radial-gradient-2" />
        <radialGradient id="radial-gradient-22" cx="0.5" cy="0.5" r="0.5"
            gradientTransform="matrix(-0.06, -0.998, 0.998, -0.06, 62.786, -7.033)"
            xlink:href="#radial-gradient-2" />
        <radialGradient id="radial-gradient-23" cx="0.5" cy="0.5" r="0.5"
            gradientTransform="matrix(-0.06, -0.998, 0.998, -0.06, 239.348, -50.633)"
            xlink:href="#radial-gradient-2" />
    </defs>
    <g id="Group_2976" data-name="Group 2976" transform="translate(1228.11 -3087.414)">
        <path id="Path_5892" data-name="Path 5892"
            d="M587.82,90.774c-15.48,8.736-19.939,238.907-5.029,250.443,7.909,6.117,313.469,7.988,327.179.818,15.421-8.064,14.252-252.428,3.075-260.23C899.624,72.439,606.241,80.382,587.82,90.774Z"
            transform="translate(-1801.745 3009.772)" fill="url(#radial-gradient)" />
        <path id="Path_5893" data-name="Path 5893"
            d="M581.7,93.671s22.882,48.151,91.913,51.427,119.241-30.683,157.352-43.043,65.643-20.08,65.643-20.08S722.457,68.522,581.7,93.671Z"
            transform="translate(-1796.034 3010.909)" opacity="0.5" fill="url(#linear-gradient)"
            style="mix-blend-mode: screen;isolation: isolate" />
        <path id="Path_5894" data-name="Path 5894"
            d="M579.22,96.4s-.6-6.338,2.27-8.613,20.26-5.333,21.172-4.545S587.84,97.458,579.22,96.4Z"
            transform="translate(-1794.347 3016.084)" fill="#fff" />
        <path id="Path_5895" data-name="Path 5895"
            d="M580.3,89.945c-2.215-.6-2.667,7.248-.7,7.562S582.516,90.551,580.3,89.945Z"
            transform="translate(-1795.481 3025.563)" fill="#fff" />
        <path id="Path_5896" data-name="Path 5896"
            d="M583.6,215.046s140.658-4.547,189.053-14.1S891.7,199.477,895.936,217.49C895.936,217.49,710.753,237.75,583.6,215.046Z"
            transform="translate(-1787.842 3130.747)" fill="url(#linear-gradient-2)"
            style="mix-blend-mode: screen;isolation: isolate" />
        <path id="Path_5897" data-name="Path 5897"
            d="M709.371,213.888c.148,2.284,9.947-.96,11.642-2.909s2.873-9.525,1.966-10.308S709.22,211.562,709.371,213.888Z"
            transform="translate(-1612.464 3135.962)" fill="#fff" />
        <path id="Path_5898" data-name="Path 5898"
            d="M600.878,146.821a3.655,3.655,0,1,1-3.431,3.865A3.652,3.652,0,0,1,600.878,146.821Z"
            transform="translate(-1768.549 3060.913)" fill="url(#radial-gradient-2)"
            style="mix-blend-mode: screen;isolation: isolate" />
        <path id="Path_5899" data-name="Path 5899"
            d="M599.615,147.912a1.012,1.012,0,1,1-.951,1.07A1.012,1.012,0,0,1,599.615,147.912Z"
            transform="translate(-1766.845 3062.441)" fill="#ffffab" />
        <path id="Path_5900" data-name="Path 5900"
            d="M602.951,140.269a3.655,3.655,0,1,1-3.431,3.865A3.654,3.654,0,0,1,602.951,140.269Z"
            transform="translate(-1765.208 3117.374)" fill="url(#radial-gradient-3)"
            style="mix-blend-mode: screen;isolation: isolate" />
        <path id="Path_5901" data-name="Path 5901"
            d="M601.688,141.36a1.012,1.012,0,1,1-.951,1.07A1.014,1.014,0,0,1,601.688,141.36Z"
            transform="translate(-1763.954 3053.304)" fill="#ffffab" />
        <path id="Path_5902" data-name="Path 5902"
            d="M601.728,159.067a3.655,3.655,0,1,1-3.431,3.865A3.652,3.652,0,0,1,601.728,159.067Z"
            transform="translate(-1767.363 3077.99)" fill="url(#radial-gradient-4)"
            style="mix-blend-mode: screen;isolation: isolate" />
        <path id="Path_5903" data-name="Path 5903"
            d="M600.465,160.158a1.012,1.012,0,1,1-.951,1.07A1.014,1.014,0,0,1,600.465,160.158Z"
            transform="translate(-1765.66 3079.518)" fill="#ffffab" />
        <path id="Path_5904" data-name="Path 5904"
            d="M598.142,136.923a10.226,10.226,0,1,1-9.6,10.818A10.225,10.225,0,0,1,598.142,136.923Z"
            transform="translate(-1780.53 3112.691)" fill="url(#radial-gradient-5)"
            style="mix-blend-mode: screen;isolation: isolate" />
        <path id="Path_5905" data-name="Path 5905"
            d="M594.608,139.978a2.832,2.832,0,1,1-2.658,3A2.832,2.832,0,0,1,594.608,139.978Z"
            transform="translate(-1776.212 3051.372)" fill="#ffffab" />
        <path id="Path_5906" data-name="Path 5906"
            d="M685.8,167.853a10.227,10.227,0,1,1-9.6,10.818A10.229,10.229,0,0,1,685.8,167.853Z"
            transform="translate(-1658.749 3090.225)" fill="url(#radial-gradient-6)"
            style="mix-blend-mode: screen;isolation: isolate" />
        <path id="Path_5907" data-name="Path 5907"
            d="M682.261,170.908a2.832,2.832,0,1,1-2.658,3A2.832,2.832,0,0,1,682.261,170.908Z"
            transform="translate(-1653.98 3094.504)" fill="#ffffab" />
        <path id="Path_5908" data-name="Path 5908"
            d="M704.907,165.8a4.885,4.885,0,1,1-4.583,5.167A4.884,4.884,0,0,1,704.907,165.8Z"
            transform="translate(-1625.09 3087.38)" fill="url(#radial-gradient-7)"
            style="mix-blend-mode: screen;isolation: isolate" />
        <path id="Path_5909" data-name="Path 5909"
            d="M703.219,167.262a1.353,1.353,0,1,1-1.269,1.432A1.355,1.355,0,0,1,703.219,167.262Z"
            transform="translate(-1622.813 3089.424)" fill="#ffffab" />
        <path id="Path_5910" data-name="Path 5910"
            d="M607.4,169.519a4.884,4.884,0,1,1-4.586,5.167A4.884,4.884,0,0,1,607.4,169.519Z"
            transform="translate(-1761.064 3092.562)" fill="url(#radial-gradient-8)"
            style="mix-blend-mode: screen;isolation: isolate" />
        <path id="Path_5911" data-name="Path 5911"
            d="M605.714,170.978a1.353,1.353,0,1,1-1.271,1.43A1.352,1.352,0,0,1,605.714,170.978Z"
            transform="translate(-1758.788 3094.606)" fill="#ffffab" />
        <path id="Path_5914" data-name="Path 5914"
            d="M587.953,174.9a2.442,2.442,0,1,1-2.294,2.581A2.437,2.437,0,0,1,587.953,174.9Z"
            transform="translate(-1784.983 3100.075)" fill="url(#radial-gradient-9)"
            style="mix-blend-mode: screen;isolation: isolate" />
        <path id="Path_5915" data-name="Path 5915"
            d="M587.109,175.632a.676.676,0,1,1-.637.716A.675.675,0,0,1,587.109,175.632Z"
            transform="translate(-1783.845 3101.097)" fill="#ffffab" />
        <path id="Path_5918" data-name="Path 5918"
            d="M602.122,173.4a1.821,1.821,0,1,1-1.71,1.925A1.822,1.822,0,0,1,602.122,173.4Z"
            transform="translate(-1764.409 3097.982)" fill="url(#radial-gradient-10)"
            style="mix-blend-mode: screen;isolation: isolate" />
        <path id="Path_5919" data-name="Path 5919"
            d="M601.493,173.944a.5.5,0,1,1-.474.534A.5.5,0,0,1,601.493,173.944Z"
            transform="translate(-1763.56 3098.743)" fill="#ffffab" />
        <path id="Path_5920" data-name="Path 5920"
            d="M656.055,175.441a3.815,3.815,0,1,1-3.582,4.037A3.816,3.816,0,0,1,656.055,175.441Z"
            transform="translate(-1691.815 3100.823)" fill="url(#radial-gradient-11)"
            style="mix-blend-mode: screen;isolation: isolate" />
        <path id="Path_5921" data-name="Path 5921"
            d="M654.735,176.581a1.057,1.057,0,1,1-.991,1.116A1.054,1.054,0,0,1,654.735,176.581Z"
            transform="translate(-1690.036 3102.42)" fill="#ffffab" />
        <path id="Path_5922" data-name="Path 5922"
            d="M622.477,176.588a3.815,3.815,0,1,1-3.58,4.037A3.817,3.817,0,0,1,622.477,176.588Z"
            transform="translate(-1738.637 3102.423)" fill="url(#radial-gradient-12)"
            style="mix-blend-mode: screen;isolation: isolate" />
        <path id="Path_5923" data-name="Path 5923"
            d="M621.158,177.728a1.057,1.057,0,1,1-.991,1.118A1.056,1.056,0,0,1,621.158,177.728Z"
            transform="translate(-1736.859 3104.019)" fill="#ffffab" />
        <path id="Path_5942" data-name="Path 5942"
            d="M667.235,91.893c-.857-1.458-2.4,9.633-1.648,8.936S670.26,97.034,667.235,91.893Z"
            transform="translate(-1674.115 3028.141)" fill="#fff" />
        <path id="Path_5943" data-name="Path 5943"
            d="M642.517,82.652a3.054,3.054,0,1,1-2.866,3.23A3.054,3.054,0,0,1,642.517,82.652Z"
            transform="translate(-1710.009 3015.431)" fill="url(#radial-gradient-13)"
            style="mix-blend-mode: screen;isolation: isolate" />
        <path id="Path_5946" data-name="Path 5946"
            d="M642.841,86.618a2.04,2.04,0,1,1-1.916,2.157A2.041,2.041,0,0,1,642.841,86.618Z"
            transform="translate(-1708.23 3020.964)" fill="url(#radial-gradient-14)"
            style="mix-blend-mode: screen;isolation: isolate" />
        <path id="Path_5947" data-name="Path 5947"
            d="M642.136,87.228a.565.565,0,1,1-.532.6A.562.562,0,0,1,642.136,87.228Z"
            transform="translate(-1707.279 3021.818)" fill="#ffffab" />
        <path id="Path_5948" data-name="Path 5948"
            d="M658.678,86.858a2.04,2.04,0,1,1-1.916,2.157A2.041,2.041,0,0,1,658.678,86.858Z"
            transform="translate(-1686.146 3021.299)" fill="url(#radial-gradient-15)"
            style="mix-blend-mode: screen;isolation: isolate" />
        <path id="Path_5949" data-name="Path 5949"
            d="M657.973,87.468a.565.565,0,1,1-.532.6A.561.561,0,0,1,657.973,87.468Z"
            transform="translate(-1685.194 3022.152)" fill="#ffffab" />
        <path id="Path_5957" data-name="Path 5957"
            d="M619.68,93.877c-.63-1.068-1.765,7.066-1.209,6.556A4.781,4.781,0,0,0,619.68,93.877Z"
            transform="translate(-1739.745 3030.957)" fill="#fff" />
        <path id="Path_5958" data-name="Path 5958"
            d="M601.548,87.1a2.24,2.24,0,1,1-2.1,2.371A2.24,2.24,0,0,1,601.548,87.1Z"
            transform="translate(-1766.074 3021.635)" fill="url(#radial-gradient-16)"
            style="mix-blend-mode: screen;isolation: isolate" />
        <path id="Path_5959" data-name="Path 5959"
            d="M600.774,87.769a.62.62,0,1,1-.582.656A.621.621,0,0,1,600.774,87.769Z"
            transform="translate(-1765.03 3022.572)" fill="#ffffab" />
        <path id="Path_5964" data-name="Path 5964"
            d="M601.785,90.009a1.5,1.5,0,1,1-1.406,1.583A1.5,1.5,0,0,1,601.785,90.009Z"
            transform="translate(-1764.77 3025.693)" fill="url(#radial-gradient-17)"
            style="mix-blend-mode: screen;isolation: isolate" />
        <path id="Path_5965" data-name="Path 5965"
            d="M601.266,90.455a.415.415,0,1,1-.388.438A.414.414,0,0,1,601.266,90.455Z"
            transform="translate(-1764.071 3026.319)" fill="#ffffab" />
        <path id="Path_5966" data-name="Path 5966"
            d="M613.4,90.185A1.5,1.5,0,1,1,612,91.767,1.5,1.5,0,0,1,613.4,90.185Z"
            transform="translate(-1748.57 3025.939)" fill="url(#radial-gradient-18)"
            style="mix-blend-mode: screen;isolation: isolate" />
        <path id="Path_5967" data-name="Path 5967"
            d="M612.883,90.631a.415.415,0,1,1-.388.441A.414.414,0,0,1,612.883,90.631Z"
            transform="translate(-1747.872 3026.565)" fill="#ffffab" />
        <path id="Path_5974" data-name="Path 5974"
            d="M627.55,194.754a3.054,3.054,0,1,1-2.866,3.23A3.054,3.054,0,0,1,627.55,194.754Z"
            transform="translate(-1730.565 3127.757)" fill="url(#radial-gradient-19)"
            style="mix-blend-mode: screen;isolation: isolate" />
        <path id="Path_5975" data-name="Path 5975"
            d="M626.5,195.666a.847.847,0,1,1-.795.9A.845.845,0,0,1,626.5,195.666Z"
            transform="translate(-1729.141 3129.034)" fill="#ffffab" />
        <path id="Path_5976" data-name="Path 5976"
            d="M629.284,189.278a3.055,3.055,0,1,1-2.866,3.233A3.054,3.054,0,0,1,629.284,189.278Z"
            transform="translate(-1728.148 3120.121)" fill="url(#radial-gradient-20)"
            style="mix-blend-mode: screen;isolation: isolate" />
        <path id="Path_5977" data-name="Path 5977"
            d="M628.229,190.191a.846.846,0,1,1-.8.9A.844.844,0,0,1,628.229,190.191Z"
            transform="translate(-1726.725 3121.399)" fill="#ffffab" />
        <path id="Path_5978" data-name="Path 5978"
            d="M628.261,204.988a3.054,3.054,0,1,1-2.866,3.23A3.054,3.054,0,0,1,628.261,204.988Z"
            transform="translate(-1729.573 3142.028)" fill="url(#radial-gradient-21)"
            style="mix-blend-mode: screen;isolation: isolate" />
        <path id="Path_5979" data-name="Path 5979"
            d="M627.2,205.9a.847.847,0,1,1-.792.9A.848.848,0,0,1,627.2,205.9Z"
            transform="translate(-1728.15 3143.305)" fill="#ffffab" />
        <path id="Path_5980" data-name="Path 5980"
            d="M625.264,186.482a8.547,8.547,0,1,1-8.019,9.042A8.55,8.55,0,0,1,625.264,186.482Z"
            transform="translate(-1740.953 3116.208)" fill="url(#radial-gradient-22)"
            style="mix-blend-mode: screen;isolation: isolate" />
        <path id="Path_5981" data-name="Path 5981"
            d="M622.312,189.035a2.366,2.366,0,1,1-2.222,2.5A2.366,2.366,0,0,1,622.312,189.035Z"
            transform="translate(-1736.969 3119.784)" fill="#ffffab" />
        <path id="Path_5986" data-name="Path 5986"
            d="M640.7,203.59a2.041,2.041,0,1,1-1.916,2.16A2.041,2.041,0,0,1,640.7,203.59Z"
            transform="translate(-1710.901 3140.081)" fill="url(#radial-gradient-23)"
            style="mix-blend-mode: screen;isolation: isolate" />
        <path id="Path_5987" data-name="Path 5987"
            d="M639.994,204.2a.565.565,0,1,1-.532.6A.569.569,0,0,1,639.994,204.2Z"
            transform="translate(-1709.95 3140.935)" fill="#ffffab" />
        <path id="Path_5997" data-name="Path 5997"
            d="M614.056,196.571a21.175,21.175,0,0,1,9.326-8.864c6.523-3.091,16.584-1.923,17.643-1.142s-1.717,2.849-6.942,4.765S616.716,198.046,614.056,196.571Z"
            transform="translate(-1745.378 3115.115)" fill="#fff" />
        <path id="Path_5998" data-name="Path 5998"
            d="M616.816,190.877c-1.343.2-4.691,10.612-4.492,12.322s4.231-3.7,4.863-6.575A11.945,11.945,0,0,0,616.816,190.877Z"
            transform="translate(-1747.805 3122.358)" fill="#fff" />
    </g>
</svg>
