<svg id="Layer_1" enable-background="new 0 0 512 512" height="512" viewBox="0 0 512 512" width="512"
    xmlns="http://www.w3.org/2000/svg">
    <g>
        <g>
            <g>
                <path
                    d="m98.589 414.582h-20.212c-8.27 0-14.974-6.704-14.974-14.974v-377.031c0-8.27 6.704-14.974 14.974-14.974h314.453c8.427 0 15.259 6.831 15.259 15.258v60.239z"
                    fill="#56788b" />
                <path
                    d="m448.588 123.594v311.01c0 8.27-6.7 14.98-14.97 14.98h-320.05c-8.27 0-14.98-6.71-14.98-14.98v-377.03c0-8.27 6.71-14.97 14.98-14.97h254.02l80.99 80.98z"
                    fill="#eef0f5" />
                <path
                    d="m448.588 123.594v311.01c0 8.27-6.7 14.98-14.97 14.98h-320.05c-8.27 0-14.98-6.71-14.98-14.98v-12.53h309.03c8.27 0 14.97-6.71 14.97-14.98v-283.5l-.01-.01-60.99-80.98h6l80.99 80.98z"
                    fill="#dae1ea" />
                <path d="m448.578 123.584h-80.99v-80.98z" fill="#b9cfdf" />
                <path d="m448.578 123.584h-26l-54.99-73.01v-7.97z" fill="#90abbd" />
            </g>
        </g>
        <g>
            <g>
                <path
                    d="m372.167 406.124c0 54.34-44.05 98.38-98.38 98.38-1.8 0-3.59-.05-5.36-.15-51.84-2.78-93.01-45.69-93.01-98.23 0-52.53 41.17-95.44 93.01-98.22 1.77-.1 3.56-.15 5.36-.15 54.33 0 98.38 44.04 98.38 98.37z"
                    fill="#99e7fa" />
            </g>
            <g>
                <path
                    d="m372.167 406.124c0 54.34-44.05 98.38-98.38 98.38-1.8 0-3.59-.05-5.36-.15 44.79-2.78 80.36-45.69 80.36-98.23 0-52.53-35.57-95.44-80.36-98.22 1.77-.1 3.56-.15 5.36-.15 54.33 0 98.38 44.04 98.38 98.37z"
                    fill="#4dd4f7" />
            </g>
        </g>
    </g>
    <g>
        <path
            d="m266.292 379.262v83.718c0 4.143 3.357 7.5 7.5 7.5s7.5-3.357 7.5-7.5v-83.718c0-4.143-3.357-7.5-7.5-7.5s-7.5 3.358-7.5 7.5z" />
        <path
            d="m273.79 341.766c-4.142 0-7.5 3.358-7.5 7.5s3.358 7.5 7.5 7.5 7.5-3.358 7.5-7.5-3.358-7.5-7.5-7.5z" />
        <path
            d="m453.897 118.219-38.304-38.311v-57.146c.001-12.551-10.209-22.762-22.758-22.762h-314.454c-12.393 0-22.475 10.083-22.475 22.478v377.123c0 12.394 10.082 22.477 22.475 22.477h12.713v12.53c0 12.394 10.082 22.477 22.474 22.477h39.647c4.143 0 7.5-3.357 7.5-7.5s-3.357-7.5-7.5-7.5h-39.647c-4.121 0-7.474-3.354-7.474-7.477v-301.619c0-4.143-3.357-7.5-7.5-7.5s-7.5 3.357-7.5 7.5v274.088h-12.713c-4.121 0-7.475-3.354-7.475-7.477v-377.122c0-4.123 3.354-7.478 7.475-7.478h314.454c4.278 0 7.759 3.481 7.759 7.762v42.144l-27.696-27.701c-1.406-1.407-3.314-2.197-5.304-2.197h-254.027c-12.392 0-22.474 10.083-22.474 22.478v40.582c0 4.143 3.357 7.5 7.5 7.5s7.5-3.357 7.5-7.5v-40.584c0-4.123 3.353-7.478 7.474-7.478h246.526v73.502c0 4.142 3.357 7.499 7.499 7.5l73.501.012v303.586c0 4.123-3.354 7.477-7.475 7.477h-39.276c-4.143 0-7.5 3.357-7.5 7.5s3.357 7.5 7.5 7.5h39.276c12.393 0 22.475-10.083 22.475-22.477v-311.085c.001-1.989-.789-3.896-2.196-5.302zm-78.803-2.209v-55.394l55.393 55.403z" />
        <path
            d="m184.068 178.496h179.421c4.143 0 7.5-3.357 7.5-7.5s-3.357-7.5-7.5-7.5h-179.421c-4.143 0-7.5 3.357-7.5 7.5s3.358 7.5 7.5 7.5z" />
        <path
            d="m184.068 222.738h179.421c4.143 0 7.5-3.357 7.5-7.5s-3.357-7.5-7.5-7.5h-179.421c-4.143 0-7.5 3.357-7.5 7.5s3.358 7.5 7.5 7.5z" />
        <path
            d="m363.489 252.863h-35.446c-4.143 0-7.5 3.357-7.5 7.5s3.357 7.5 7.5 7.5h35.446c4.143 0 7.5-3.357 7.5-7.5s-3.357-7.5-7.5-7.5z" />
        <path
            d="m184.068 267.863h108.677c4.143 0 7.5-3.357 7.5-7.5s-3.357-7.5-7.5-7.5h-108.677c-4.143 0-7.5 3.357-7.5 7.5s3.358 7.5 7.5 7.5z" />
        <path
            d="m273.792 300.249c-44.438 0-84.455 28.062-99.577 69.826-1.41 3.896.604 8.195 4.498 9.605 3.899 1.41 8.195-.604 9.605-4.498 12.979-35.849 47.329-59.934 85.474-59.934 50.108 0 90.875 40.767 90.875 90.876 0 50.108-40.767 90.875-90.875 90.875s-90.875-40.767-90.875-90.875c0-4.143-3.357-7.5-7.5-7.5s-7.5 3.357-7.5 7.5c0 58.38 47.495 105.875 105.875 105.875s105.875-47.495 105.875-105.875-47.495-105.875-105.875-105.875z" />
    </g>
</svg>