<svg xmlns="http://www.w3.org/2000/svg" width="120.547" height="98.399" viewBox="0 0 120.547 98.399">
  <g id="Group_14" data-name="Group 14" transform="translate(-98.562 -150.355)">
    <g id="Group_11" data-name="Group 11" transform="translate(120.719 150.355)">
      <circle id="Ellipse_1" data-name="Ellipse 1" cx="49.195" cy="49.195" r="49.195" transform="translate(0 0.005)" fill="#fd3"/>
      <g id="Group_6" data-name="Group 6" transform="translate(0.356)">
        <path id="Path_1" data-name="Path 1" d="M237.384,282.719a67.431,67.431,0,0,1-59.037,10.132c-9.48-2.935-17.633-8.569-24.472-15.684a97.556,97.556,0,0,1-6.984-8.377,49.2,49.2,0,0,0,95.4,9.926Q239.941,280.817,237.384,282.719Z" transform="translate(-146.891 -213.619)" fill="#f7d719" opacity="0.46" style="mix-blend-mode: multiply;isolation: isolate"/>
        <path id="Path_2" data-name="Path 2" d="M175.235,171.618c16.544-3.84,35.022-3.273,51.144,2.173A58.614,58.614,0,0,1,247.272,185.7c.225.206.447.419.67.63a49.21,49.21,0,0,0-92.031-7.474A73.346,73.346,0,0,1,175.235,171.618Z" transform="translate(-151.709 -150.355)" fill="#ffe67d"/>
      </g>
      <g id="Group_10" data-name="Group 10" transform="translate(28.892 14.299)">
        <g id="Group_9" data-name="Group 9" transform="translate(0 29.084)">
          <g id="Group_8" data-name="Group 8" transform="translate(0.344 0.808)">
            <path id="Path_3" data-name="Path 3" d="M245.478,264.6a23.729,23.729,0,0,1-4.631.5,41.013,41.013,0,0,1-9.811-1.045c-6.121-1.407-11.9-4.476-15.683-9.6a20.414,20.414,0,0,1-3.728-8.955.314.314,0,0,0-.4-.268,29.126,29.126,0,0,0-2.34,9.9,37.682,37.682,0,0,0,.423,5.3c.729,4.907,2.173,10.074,5.055,14.17a28.592,28.592,0,0,0,4.941,5.3,13.871,13.871,0,0,0,6.287,3.346c4.9.9,9.284-2.285,12.491-5.609.766-.794,1.51-1.61,2.248-2.432,1.226-1.611,2.554-3.154,3.814-4.743,1.83-2.307,3.4-4.741,5-7.172A19.87,19.87,0,0,1,245.478,264.6Z" transform="translate(-208.888 -245.22)" fill="#38030e"/>
            <g id="Group_7" data-name="Group 7" transform="translate(0.045)">
              <path id="Path_4" data-name="Path 4" d="M240.9,265.1a41.013,41.013,0,0,1-9.811-1.045c-6.121-1.407-11.9-4.476-15.683-9.6a20.414,20.414,0,0,1-3.728-8.955.315.315,0,0,0-.4-.268,28.859,28.859,0,0,0-2.3,9.291,35.356,35.356,0,0,0,8.639,10.536c4.909,4.232,10.642,8.487,17.386,8.348,1.244-1.639,2.548-3.3,3.84-4.909.893-1.11,1.773-2.3,2.717-3.42C241.344,265.083,241.121,265.095,240.9,265.1Z" transform="translate(-208.985 -245.22)" fill="#fffdf8"/>
              <path id="Path_5" data-name="Path 5" d="M219.36,266.02a53.954,53.954,0,0,1-3.06-10.445c-.308-.364-.609-.737-.9-1.125a20.414,20.414,0,0,1-3.728-8.955.315.315,0,0,0-.4-.268,28.859,28.859,0,0,0-2.3,9.291,35.356,35.356,0,0,0,8.639,10.536c.675.582,1.367,1.163,2.074,1.734C219.577,266.525,219.464,266.268,219.36,266.02Z" transform="translate(-208.985 -245.22)" fill="#f2e2e6"/>
            </g>
            <path id="Path_6" data-name="Path 6" d="M229.735,303.442c-.889-3.82-3.94-7.409-8.159-6.982-1.486.15-1.953.361-2.8-1.036-.664-1.1-.784-2.494-1.595-3.523a4.274,4.274,0,0,0-4.58-1.289,27.481,27.481,0,0,0,3.746,8.125,28.589,28.589,0,0,0,4.941,5.3,13.872,13.872,0,0,0,6.287,3.346,9.349,9.349,0,0,0,2.269.128A10.481,10.481,0,0,0,229.735,303.442Z" transform="translate(-210.874 -269.36)" fill="#f23b44"/>
            <path id="Path_7" data-name="Path 7" d="M226.1,303.694a19.363,19.363,0,0,1-3.531-7.242,6.623,6.623,0,0,0-.991.019c-1.486.15-1.953.361-2.8-1.036a5.577,5.577,0,0,1-.412-.863,1.826,1.826,0,0,1-.264.153,1.411,1.411,0,0,1-1.93-.051,2.37,2.37,0,0,1-1.047-.969,7.385,7.385,0,0,1-.9-3.264,4.477,4.477,0,0,0-1.623.181,27.481,27.481,0,0,0,3.746,8.125,28.591,28.591,0,0,0,4.941,5.3,13.871,13.871,0,0,0,6.287,3.346,9.346,9.346,0,0,0,2.269.128c.019-.124.034-.248.05-.373A12.4,12.4,0,0,1,226.1,303.694Z" transform="translate(-210.874 -269.371)" fill="#ce192b"/>
          </g>
          <path id="Path_8" data-name="Path 8" d="M293.341,284.328a7.441,7.441,0,0,0-.523-2.336,4.814,4.814,0,0,0-1.218-1.743,3.091,3.091,0,0,0-1.833-.764.243.243,0,0,0-.121.463,2.616,2.616,0,0,1,.659.526c.192.213.413.392.6.613a5.319,5.319,0,0,1,.885,1.5,6.652,6.652,0,0,1,.379,1.971c.021.348.027.694.058,1.042a1.979,1.979,0,0,0,.192,1.042.392.392,0,0,0,.548.066,1.857,1.857,0,0,0,.354-1.123A5.886,5.886,0,0,0,293.341,284.328Z" transform="translate(-251.609 -262.714)" fill="#38030e"/>
          <path id="Path_9" data-name="Path 9" d="M214.381,244.508c-.569-1.37-2.533-1.12-3.64-.644a6.114,6.114,0,0,0-1.714,1.119,3.8,3.8,0,0,0-.662.76,1.128,1.128,0,0,0-.158,1.015c.062.217.347.188.468.057a8.042,8.042,0,0,1,1.07-1.133,7.386,7.386,0,0,1,1.414-.853,3.1,3.1,0,0,1,1.458-.289,4.225,4.225,0,0,1,.764.168c.248.065.5.084.751.137A.243.243,0,0,0,214.381,244.508Z" transform="translate(-208.15 -243.486)" fill="#38030e"/>
        </g>
        <path id="Path_10" data-name="Path 10" d="M238.886,202.639c-1.816-.674-4.262,1.4-5.462,4.634a9.853,9.853,0,0,0-.647,3.517,9.206,9.206,0,0,1,1.116.729,11.956,11.956,0,0,1,2.478,2.7,7.839,7.839,0,0,0,3.632-4.5C241.2,206.482,240.7,203.314,238.886,202.639Z" transform="translate(-221.305 -192.515)" fill="#38030e"/>
        <path id="Path_11" data-name="Path 11" d="M297.653,237a9.883,9.883,0,0,0,1.824-3.115c1.2-3.233.7-6.4-1.116-7.075s-4.262,1.4-5.463,4.633a8.159,8.159,0,0,0-.3,5.522A9.659,9.659,0,0,1,297.653,237Z" transform="translate(-253.072 -205.425)" fill="#38030e"/>
        <path id="Path_12" data-name="Path 12" d="M245.666,183.283a5.99,5.99,0,0,0-4.345-2.213,12.107,12.107,0,0,0-4.923.757,5.188,5.188,0,0,0-1.042.546,5.844,5.844,0,0,0-.9.73,3.272,3.272,0,0,0-.785,1.164,1.318,1.318,0,0,0-.119.712c.025.088.05.177.076.265-.045-.124-.059-.124-.041,0a.545.545,0,0,0,.344.439q.166.068.029-.015a1.054,1.054,0,0,0,.515.209,2.662,2.662,0,0,0,.715-.036q.157-.027.03,0a1.136,1.136,0,0,0,.585-.054,5.485,5.485,0,0,0,.577-.166,5.919,5.919,0,0,0,1.481-.4c.12-.042.239-.082.361-.12q-.238.061.086-.024c.245-.061.492-.117.741-.163a10.486,10.486,0,0,1,1.438-.16c-.008.008.532.013.6.016a5.975,5.975,0,0,1,.746.081,2.692,2.692,0,0,1,1.441.928c.4.5.31.55.711,1.1a4.643,4.643,0,0,0,.916.986,1.087,1.087,0,0,0,1.509-.206C247.334,186.218,246.648,184.509,245.666,183.283Z" transform="translate(-221.715 -181.051)" fill="#38030e"/>
        <path id="Path_13" data-name="Path 13" d="M312.392,213.3a6.932,6.932,0,0,0-4.183-5.652,6.546,6.546,0,0,0-3.686-.536,4.395,4.395,0,0,0-1.858.61,1.82,1.82,0,0,0-.41.366.8.8,0,0,0-.175.383.787.787,0,0,0-.044.226.691.691,0,0,0-.026.291.726.726,0,0,0,.117.288.52.52,0,0,0,.138.14c.022.024.085.084.2.184a1.57,1.57,0,0,0,.866.251c.267.016.533-.012.8-.019.01,0,.177.006.213.007.1,0,.2.012.293.021a10.387,10.387,0,0,1,1.308.245c.027.007.132.033.191.051.095.029.188.061.281.1a7.258,7.258,0,0,1,.682.3l.04.018c.106.065.21.133.311.2a5.707,5.707,0,0,1,.491.389c.047.041.1.1.124.117.043.046.086.092.128.138.154.173.3.352.439.539.055.075.106.152.159.228l.043.061,0,.006c.1.186.2.368.28.561.184.421.391.834.551,1.266a1.383,1.383,0,0,0,.575.661,1.674,1.674,0,0,0,.221.192c.014.025.028.049.041.075a.643.643,0,0,0,1.167-.011c.013-.024.025-.049.038-.073l.018-.011a.816.816,0,0,0,.264-.319,3.18,3.18,0,0,0,.4-1.295Z" transform="translate(-258.284 -194.938)" fill="#38030e"/>
      </g>
    </g>
    <g id="Group_13" data-name="Group 13" transform="translate(98.562 168.827)">
      <g id="Group_12" data-name="Group 12" transform="translate(0 0.19)">
        <path id="Path_14" data-name="Path 14" d="M141.484,233.884a13,13,0,0,0,2.593-2.9,10.155,10.155,0,0,0,1.7-7.391,8.874,8.874,0,0,0-3.984-5.93,11.243,11.243,0,0,0-4.2-1.428,20.23,20.23,0,0,0-4.136-.219,12.965,12.965,0,0,0-2.677.428l.045-.068a29.482,29.482,0,0,0,3.711-7.458c1.512-4.883,1.3-10.254-1.887-14.595a13.4,13.4,0,0,0-2.77-2.791c-2.631-1.962-6.377-1.119-8.824.842a9.207,9.207,0,0,0-2.972,8.5c.271,1.722,1.42,2.578.918,4.264-2.171,7.3-9.475,9.329-14.063,14.589a25.811,25.811,0,0,0-6.22,13.85,22.181,22.181,0,0,0,3.39,14.629A25.133,25.133,0,0,0,113.8,257.8a23.026,23.026,0,0,0,8.7,1.667,15.829,15.829,0,0,0,4.553-.672,8.309,8.309,0,0,0,2.073-.968,6.7,6.7,0,0,0,1.586-1.7.641.641,0,0,0,.139-.387,10.607,10.607,0,0,0,1-.467,10.225,10.225,0,0,0,3.527-3.067,9.86,9.86,0,0,0,1.741-4.142,7.619,7.619,0,0,0-.068-3,16.916,16.916,0,0,0,1.4-1.462,12.41,12.41,0,0,0,2.333-3.7,8.145,8.145,0,0,0,.458-4.335,5.5,5.5,0,0,0-.4-1.238A4.869,4.869,0,0,0,141.484,233.884Z" transform="translate(-98.562 -190.419)" fill="#fd3"/>
        <path id="Path_15" data-name="Path 15" d="M161.041,267.992a10.155,10.155,0,0,0,1.7-7.391,9.25,9.25,0,0,0-.222-.906,12.754,12.754,0,0,1-6.355,6.06c-5.41,2.132-10.448-.51-15.651-1.82-.041-.028-.078-.061-.121-.087a.25.25,0,0,0-.395.229c.136,1.328,1.635,2.507,2.726,3.1a32.675,32.675,0,0,0,4.7,1.914,38.4,38.4,0,0,0,5.4,1.942c1.921,1.471,2.626,2.957,1.494,5.379-1.356,2.9-5.222,3.507-8.026,2.894-1.419-.31-2.987-.647-4.544-1.094a8.669,8.669,0,0,1,2.209,7.944c-.874,3.511-3.863,5.936-6.575,3.858-.849,2.689-4.077,4.257-7.06,4.6.147.062.293.128.443.188a23.034,23.034,0,0,0,8.7,1.667,15.829,15.829,0,0,0,4.553-.672,8.31,8.31,0,0,0,2.073-.968,6.7,6.7,0,0,0,1.586-1.7.641.641,0,0,0,.139-.387,10.619,10.619,0,0,0,1-.467,10.225,10.225,0,0,0,3.527-3.067,9.854,9.854,0,0,0,1.741-4.142,7.619,7.619,0,0,0-.068-3,16.908,16.908,0,0,0,1.4-1.462,12.415,12.415,0,0,0,2.333-3.7,8.145,8.145,0,0,0,.458-4.335,5.5,5.5,0,0,0-.4-1.238,4.873,4.873,0,0,0,.636-.441A13,13,0,0,0,161.041,267.992Z" transform="translate(-115.526 -227.424)" fill="#ffb217"/>
      </g>
      <path id="Path_16" data-name="Path 16" d="M158.662,224.591a9.715,9.715,0,0,0-3.284-6.314,14.438,14.438,0,0,0-3.5-2.427,10.975,10.975,0,0,0-4.16-.722,20.961,20.961,0,0,0-4.176.32c.052-.061.107-.119.158-.182a11.234,11.234,0,0,0,1.443-2.336,19.216,19.216,0,0,0,1.534-5.543,21.655,21.655,0,0,0-1.027-10.787c-1.006-2.515-2.606-4.872-5.155-5.94a8.4,8.4,0,0,0-3.142-.648,8.014,8.014,0,0,0-5.575,2.148,7.715,7.715,0,0,0-2.452,5.557c-.044,2.4.739,4.678,1.112,7.026-.246.4-.368.927-.569,1.34a16.443,16.443,0,0,1-.928,1.7,15.964,15.964,0,0,1-2.425,2.9c-1.922,1.833-4.236,3.1-6.294,4.751-.153.123-.01.4.178.305a26.026,26.026,0,0,0,6.751-4.831,16.009,16.009,0,0,0,2.361-2.919,10.04,10.04,0,0,0,.874-1.693c.054-.143.121-.305.185-.474a11.067,11.067,0,0,1-.031,2.31,14.323,14.323,0,0,0,.778-2.944c-.218-1.6-.625-3.2-.88-4.574-.414-2.234-.5-4.6.814-6.569a7.228,7.228,0,0,1,4.813-3.118,7.983,7.983,0,0,1,3.625.3,7.5,7.5,0,0,1,3.892,3.045,11.387,11.387,0,0,1,1.186,2.2,16.3,16.3,0,0,1,1.1,4.858,27.5,27.5,0,0,1-.116,5.087,20.1,20.1,0,0,1-1.193,5.281,14.128,14.128,0,0,1-1.37,2.66c-.33.5-.769.932-1.136,1.4a11.381,11.381,0,0,0-1.2.363,7.5,7.5,0,0,0-2,.954,8.677,8.677,0,0,1-1.555-2.542.317.317,0,0,0-.6.152,5.759,5.759,0,0,0,2.626,4.089,7.523,7.523,0,0,0,2.644,1.113,3.714,3.714,0,0,0,2.788-.209.235.235,0,0,0-.06-.41c-.794-.233-1.655-.141-2.468-.3a6.241,6.241,0,0,1-2.338-.979,6,6,0,0,1-.61-.491c.467-.11.912-.291,1.375-.427q.457-.135.92-.261a.138.138,0,0,0,.122.04,1.918,1.918,0,0,0,.636-.232c.089-.022.178-.047.267-.068a20.121,20.121,0,0,1,3.661-.5,15.83,15.83,0,0,1,4.017.265,7.9,7.9,0,0,1,3.4,1.887,9.944,9.944,0,0,1,3.479,5.6,8.176,8.176,0,0,1-1.014,5.963A9.142,9.142,0,0,1,153.8,232.3a6.127,6.127,0,0,1-4.258,1.289,21.456,21.456,0,0,1-2.647-.332,25.739,25.739,0,0,1-4.747-1.3,30.863,30.863,0,0,1-8.416-5.166c-.279-.231-.688.156-.452.423a22.247,22.247,0,0,0,8.633,5.739,26.284,26.284,0,0,0,5.024,1.445c1.527.264,3.714.71,5.253.253a3.593,3.593,0,0,1,.094.355,6,6,0,0,1,.1,1.623,11.234,11.234,0,0,1-.648,2.907c-.607,1.739-1.411,3.783-3.425,4.417-1.956.616-4.328,0-6.247-.54a28.267,28.267,0,0,1-6.142-2.525,38.92,38.92,0,0,1-6.068-4.325c-.293-.248-.719.163-.477.446a25.223,25.223,0,0,0,12.446,7.413,14.987,14.987,0,0,0,5.849.739,9.129,9.129,0,0,1-1.13,5.872,7.312,7.312,0,0,1-4.145,3.808c-4.246,1.344-8.279-1.514-11.205-4.134a57.863,57.863,0,0,1-5.312-5.481c-.293-.342-.84.053-.566.408a47.439,47.439,0,0,0,5.012,5.5,19.831,19.831,0,0,0,5.806,4.055,9.935,9.935,0,0,0,6.252.59A7.773,7.773,0,0,0,147,252.118a10.173,10.173,0,0,0,1.594-7.156c2.24-.649,3.3-2.671,4.022-4.607a12.789,12.789,0,0,0,.878-3.672,6.32,6.32,0,0,0-.25-2.454,10.218,10.218,0,0,0,3.559-3.026A9.416,9.416,0,0,0,158.662,224.591Z" transform="translate(-110.099 -190.01)" fill="#38030e"/>
    </g>
  </g>
</svg>
